{
  "accessors": [
    {
      "bufferView": 2,
      "componentType": 5126,
      "count": 36168,
      "max": [
        73.5563735961914,
        86.7005844116211,
        -1.8463635444641113
      ],
      "min": [
        -37.74689483642578,
        -86.7005844116211,
        -84.53656005859375
      ],
      "type": "VEC3"
    },
    {
      "bufferView": 2,
      "byteOffset": 434016,
      "componentType": 5126,
      "count": 36168,
      "max": [
        1.0,
        1.0,
        1.0
      ],
      "min": [
        -1.0,
        -1.0,
        -1.0
      ],
      "type": "VEC3"
    },
    {
      "bufferView": 1,
      "componentType": 5126,
      "count": 36168,
      "max": [
        0.9997175335884094,
        1.0
      ],
      "min": [
        0.0,
        0.051129937171936035
      ],
      "type": "VEC2"
    },
    {
      "bufferView": 0,
      "componentType": 5125,
      "count": 73200,
      "type": "SCALAR"
    },
    {
      "bufferView": 2,
      "byteOffset": 868032,
      "componentType": 5126,
      "count": 65532,
      "max": [
        73.11894989013672,
        86.79606628417969,
        -1.8463635444641113
      ],
      "min": [
        -37.56037139892578,
        -86.79607391357422,
        -89.8851089477539
      ],
      "type": "VEC3"
    },
    {
      "bufferView": 2,
      "byteOffset": 1654416,
      "componentType": 5126,
      "count": 65532,
      "max": [
        1.0,
        1.0,
        1.0
      ],
      "min": [
        -1.0,
        -1.0,
        -1.0
      ],
      "type": "VEC3"
    },
    {
      "bufferView": 1,
      "byteOffset": 289344,
      "componentType": 5126,
      "count": 65532,
      "max": [
        1.0,
        1.0
      ],
      "min": [
        0.0,
        0.0
      ],
      "type": "VEC2"
    },
    {
      "bufferView": 0,
      "byteOffset": 292800,
      "componentType": 5125,
      "count": 125196,
      "type": "SCALAR"
    },
    {
      "bufferView": 2,
      "byteOffset": 2440800,
      "componentType": 5126,
      "count": 61112,
      "max": [
        73.36983489990234,
        86.7005844116211,
        -1.8463635444641113
      ],
      "min": [
        -37.56037139892578,
        -86.7005844116211,
        -89.8851089477539
      ],
      "type": "VEC3"
    },
    {
      "bufferView": 2,
      "byteOffset": 3174144,
      "componentType": 5126,
      "count": 61112,
      "max": [
        1.0,
        1.0,
        1.0
      ],
      "min": [
        -1.0,
        -1.0,
        -1.0
      ],
      "type": "VEC3"
    },
    {
      "bufferView": 1,
      "byteOffset": 813600,
      "componentType": 5126,
      "count": 61112,
      "max": [
        1.0,
        1.0
      ],
      "min": [
        0.0,
        0.0
      ],
      "type": "VEC2"
    },
    {
      "bufferView": 0,
      "byteOffset": 793584,
      "componentType": 5125,
      "count": 114756,
      "type": "SCALAR"
    },
    {
      "bufferView": 2,
      "byteOffset": 3907488,
      "componentType": 5126,
      "count": 11216,
      "max": [
        73.5563735961914,
        52.96424102783203,
        -11.975382804870605
      ],
      "min": [
        -37.74689483642578,
        -52.96424102783203,
        -77.43378448486328
      ],
      "type": "VEC3"
    },
    {
      "bufferView": 2,
      "byteOffset": 4042080,
      "componentType": 5126,
      "count": 11216,
      "max": [
        1.0,
        1.0,
        1.0
      ],
      "min": [
        -1.0,
        -1.0,
        -1.0
      ],
      "type": "VEC3"
    },
    {
      "bufferView": 1,
      "byteOffset": 1302496,
      "componentType": 5126,
      "count": 11216,
      "max": [
        0.99853515625,
        1.0
      ],
      "min": [
        0.0,
        0.0019453167915344238
      ],
      "type": "VEC2"
    },
    {
      "bufferView": 0,
      "byteOffset": 1252608,
      "componentType": 5125,
      "count": 19536,
      "type": "SCALAR"
    },
    {
      "bufferView": 2,
      "byteOffset": 4176672,
      "componentType": 5126,
      "count": 144,
      "max": [
        72.75182342529297,
        12.089616775512695,
        -1.8463635444641113
      ],
      "min": [
        -36.942359924316406,
        -12.089616775512695,
        -12.328149795532227
      ],
      "type": "VEC3"
    },
    {
      "bufferView": 2,
      "byteOffset": 4178400,
      "componentType": 5126,
      "count": 144,
      "max": [
        1.0,
        1.0,
        1.0
      ],
      "min": [
        -1.0,
        -1.0,
        -1.0
      ],
      "type": "VEC3"
    },
    {
      "bufferView": 1,
      "byteOffset": 1392224,
      "componentType": 5126,
      "count": 144,
      "max": [
        1.0,
        1.0
      ],
      "min": [
        0.0,
        0.0
      ],
      "type": "VEC2"
    },
    {
      "bufferView": 0,
      "byteOffset": 1330752,
      "componentType": 5125,
      "count": 216,
      "type": "SCALAR"
    },
    {
      "bufferView": 2,
      "byteOffset": 4180128,
      "componentType": 5126,
      "count": 6072,
      "max": [
        73.25850677490234,
        86.59485626220703,
        -1.8463635444641113
      ],
      "min": [
        -37.44904327392578,
        -86.59485626220703,
        -79.38904571533203
      ],
      "type": "VEC3"
    },
    {
      "bufferView": 2,
      "byteOffset": 4252992,
      "componentType": 5126,
      "count": 6072,
      "max": [
        1.0,
        1.0,
        1.0
      ],
      "min": [
        -1.0,
        -1.0,
        -1.0
      ],
      "type": "VEC3"
    },
    {
      "bufferView": 1,
      "byteOffset": 1393376,
      "componentType": 5126,
      "count": 6072,
      "max": [
        1.0,
        1.0
      ],
      "min": [
        0.0,
        0.0
      ],
      "type": "VEC2"
    },
    {
      "bufferView": 0,
      "byteOffset": 1331616,
      "componentType": 5125,
      "count": 9192,
      "type": "SCALAR"
    },
    {
      "bufferView": 2,
      "byteOffset": 4325856,
      "componentType": 5126,
      "count": 56,
      "max": [
        72.75182342529297,
        87.16120147705078,
        -1.8463643789291382
      ],
      "min": [
        -73.5563735961914,
        -87.16120910644531,
        -7.78292179107666
      ],
      "type": "VEC3"
    },
    {
      "bufferView": 2,
      "byteOffset": 4326528,
      "componentType": 5126,
      "count": 56,
      "max": [
        1.0,
        1.0,
        1.0
      ],
      "min": [
        -1.0,
        -1.0,
        -1.0
      ],
      "type": "VEC3"
    },
    {
      "bufferView": 1,
      "byteOffset": 1441952,
      "componentType": 5126,
      "count": 56,
      "max": [
        1.0,
        1.0
      ],
      "min": [
        0.0,
        0.0
      ],
      "type": "VEC2"
    },
    {
      "bufferView": 0,
      "byteOffset": 1368384,
      "componentType": 5125,
      "count": 84,
      "type": "SCALAR"
    }
  ],
  "asset": {
    "extras": {
      "author": "Ahmad Riazi (https://sketchfab.com/ahmadriazi)",
      "license": "CC-BY-4.0 (http://creativecommons.org/licenses/by/4.0/)",
      "source": "https://sketchfab.com/3d-models/building-9fcc15888bdb4b2cb32dcf2237a5acba",
      "title": "Building"
    },
    "generator": "Sketchfab-14.10.0",
    "version": "2.0"
  },
  "bufferViews": [
    {
      "buffer": 0,
      "byteLength": 1368720,
      "name": "floatBufferViews",
      "target": 34963
    },
    {
      "buffer": 0,
      "byteLength": 1442400,
      "byteOffset": 1368720,
      "byteStride": 8,
      "name": "floatBufferViews",
      "target": 34962
    },
    {
      "buffer": 0,
      "byteLength": 4327200,
      "byteOffset": 2811120,
      "byteStride": 12,
      "name": "floatBufferViews",
      "target": 34962
    }
  ],
  "buffers": [
    {
      "byteLength": 7138320,
      "uri": "scene.bin"
    }
  ],
  "extensionsUsed": [
    "KHR_materials_clearcoat"
  ],
  "images": [
    {
      "uri": "textures/Marble13_COL_6K_baseColor.jpeg"
    }
  ],
  "materials": [
    {
      "doubleSided": true,
      "name": "body_3",
      "pbrMetallicRoughness": {
        "baseColorFactor": [
          0.882353,
          0.882353,
          0.882353,
          1.0
        ],
        "metallicFactor": 0.0,
        "roughnessFactor": 0.552786
      }
    },
    {
      "doubleSided": true,
      "name": "Plastic_1",
      "pbrMetallicRoughness": {
        "baseColorFactor": [
          0.0627451,
          0.0627451,
          0.0627451,
          1.0
        ],
        "metallicFactor": 0.0,
        "roughnessFactor": 0.552786
      }
    },
    {
      "doubleSided": true,
      "name": "Plastic",
      "pbrMetallicRoughness": {
        "baseColorFactor": [
          0.775209617965722,
          0.4348495527716001,
          0.13247896172200854,
          1.0
        ],
        "metallicFactor": 0.3702868427789494,
        "roughnessFactor": 0.37638209945020784
      }
    },
    {
      "doubleSided": true,
      "name": "Marble13_COL_6K",
      "pbrMetallicRoughness": {
        "baseColorTexture": {
          "index": 0
        },
        "metallicFactor": 0.0,
        "roughnessFactor": 0.552786
      }
    },
    {
      "alphaMode": "BLEND",
      "doubleSided": true,
      "extensions": {
        "KHR_materials_clearcoat": {
          "clearcoatFactor": 0.7725737830820055,
          "clearcoatRoughnessFactor": 0.06552400921602808
        }
      },
      "name": "shise_3",
      "pbrMetallicRoughness": {
        "baseColorFactor": [
          1.0,
          1.0,
          1.0,
          0.7360022430544549
        ]
      }
    },
    {
      "doubleSided": true,
      "name": "zamin000",
      "pbrMetallicRoughness": {
        "metallicFactor": 0.0,
        "roughnessFactor": 0.552786
      }
    }
  ],
  "meshes": [
    {
      "name": "Object_0",
      "primitives": [
        {
          "attributes": {
            "NORMAL": 1,
            "POSITION": 0,
            "TEXCOORD_0": 2
          },
          "indices": 3,
          "material": 0,
          "mode": 4
        }
      ]
    },
    {
      "name": "Object_1",
      "primitives": [
        {
          "attributes": {
            "NORMAL": 5,
            "POSITION": 4,
            "TEXCOORD_0": 6
          },
          "indices": 7,
          "material": 1,
          "mode": 4
        }
      ]
    },
    {
      "name": "Object_2",
      "primitives": [
        {
          "attributes": {
            "NORMAL": 9,
            "POSITION": 8,
            "TEXCOORD_0": 10
          },
          "indices": 11,
          "material": 1,
          "mode": 4
        }
      ]
    },
    {
      "name": "Object_3",
      "primitives": [
        {
          "attributes": {
            "NORMAL": 13,
            "POSITION": 12,
            "TEXCOORD_0": 14
          },
          "indices": 15,
          "material": 2,
          "mode": 4
        }
      ]
    },
    {
      "name": "Object_4",
      "primitives": [
        {
          "attributes": {
            "NORMAL": 17,
            "POSITION": 16,
            "TEXCOORD_0": 18
          },
          "indices": 19,
          "material": 3,
          "mode": 4
        }
      ]
    },
    {
      "name": "Object_5",
      "primitives": [
        {
          "attributes": {
            "NORMAL": 21,
            "POSITION": 20,
            "TEXCOORD_0": 22
          },
          "indices": 23,
          "material": 4,
          "mode": 4
        }
      ]
    },
    {
      "name": "Object_6",
      "primitives": [
        {
          "attributes": {
            "NORMAL": 25,
            "POSITION": 24,
            "TEXCOORD_0": 26
          },
          "indices": 27,
          "material": 5,
          "mode": 4
        }
      ]
    }
  ],
  "nodes": [
    {
      "children": [
        1
      ],
      "matrix": [
        -2.220446049250313e-16,
        6.123234262925839e-17,
        -1.0,
        0.0,
        -1.0,
        1.6081226229577287e-16,
        2.2204460492503136e-16,
        0.0,
        1.6081226229577292e-16,
        1.0,
        6.123234262925839e-17,
        0.0,
        0.0,
        0.0,
        0.0,
        1.0
      ],
      "name": "Sketchfab_model"
    },
    {
      "children": [
        2
      ],
      "name": "root"
    },
    {
      "children": [
        3
      ],
      "matrix": [
        1.0,
        0.0,
        0.0,
        0.0,
        0.0,
        2.220446049250313e-16,
        1.0,
        0.0,
        0.0,
        -1.0,
        2.220446049250313e-16,
        0.0,
        0.0,
        0.0,
        0.0,
        1.0
      ],
      "name": "GLTF_SceneRootNode"
    },
    {
      "children": [
        4
      ],
      "matrix": [
        0.009999999776482582,
        0.0,
        0.0,
        0.0,
        0.0,
        8.429369291789587e-10,
        0.009999999776482547,
        0.0,
        0.0,
        -0.009999999776482547,
        8.429369291789587e-10,
        0.0,
        0.0,
        0.0,
        0.0,
        1.0
      ],
      "name": "Default_13"
    },
    {
      "children": [
        5,
        8,
        12,
        15,
        18,
        21
      ],
      "name": "mov4_12"
    },
    {
      "children": [
        6
      ],
      "name": "body_1"
    },
    {
      "children": [
        7
      ],
      "name": "body_2_0"
    },
    {
      "mesh": 0,
      "name": "Object_7"
    },
    {
      "children": [
        9
      ],
      "name": "frame_3"
    },
    {
      "children": [
        10,
        11
      ],
      "name": "frame_2_2"
    },
    {
      "mesh": 1,
      "name": "Object_10"
    },
    {
      "mesh": 2,
      "name": "Object_11"
    },
    {
      "children": [
        13
      ],
      "name": "kerem_5"
    },
    {
      "children": [
        14
      ],
      "name": "kerem_2_4"
    },
    {
      "mesh": 3,
      "name": "Object_14"
    },
    {
      "children": [
        16
      ],
      "name": "sabz_7"
    },
    {
      "children": [
        17
      ],
      "name": "sabz_2_6"
    },
    {
      "mesh": 4,
      "name": "Object_17"
    },
    {
      "children": [
        19
      ],
      "name": "shise_9"
    },
    {
      "children": [
        20
      ],
      "name": "shise_2_8"
    },
    {
      "mesh": 5,
      "name": "Object_20"
    },
    {
      "children": [
        22
      ],
      "name": "zamin_11"
    },
    {
      "children": [
        23
      ],
      "name": "zamin_2_10"
    },
    {
      "mesh": 6,
      "name": "Object_23"
    }
  ],
  "samplers": [
    {
      "magFilter": 9729,
      "minFilter": 9987,
      "wrapS": 10497,
      "wrapT": 10497
    }
  ],
  "scene": 0,
  "scenes": [
    {
      "name": "Sketchfab_Scene",
      "nodes": [
        0
      ]
    }
  ],
  "textures": [
    {
      "sampler": 0,
      "source": 0
    }
  ]
}
